# xmcd
#
# Track frame offsets:
#	150
#	13957
#	30990
#	46140
#	60597
#	78305
#	94987
#	110407
#	125487
#	143660
#
# Disc length: 2131 seconds
#
# Revision: 3
# Processed by: cddbd v1.5.2PL0 Copyright (c) Steve Scherf et al.
# Submitted via: audiograbber 1.83.01
#
DISCID=7b08510a
DTITLE=Ricky Lynn Gregg - Get A Little Closer
DYEAR=1994
DGENRE=Country
TTITLE0=After The Fire Is Gone
TTITLE1=To Find Where I Belong
TTITLE2=Get A Little Closer
TTITLE3=Dog House Blues
TTITLE4=I Could've Loved You Better
TTITLE5=Rowdy
TTITLE6=Don't Let Go
TTITLE7=A Woman Like You
TTITLE8=Dangerously Close
TTITLE9=Silver Wings
EXTD=
EXTT0=
EXTT1=
EXTT2=
EXTT3=
EXTT4=
EXTT5=
EXTT6=
EXTT7=
EXTT8=
EXTT9=
PLAYORDER=
